<svg width="28" height="29" viewBox="0 0 28 29" fill="none" xmlns="http://www.w3.org/2000/svg">
<mask id="path-1-outside-1_1393_5975" maskUnits="userSpaceOnUse" x="0.0703125" y="-0.0200195" width="28" height="29" fill="black">
<rect fill="white" x="0.0703125" y="-0.0200195" width="28" height="29"/>
<path d="M16.6802 28.019H9.43321C8.918 27.878 8.43027 27.6808 8.08904 27.2462C7.96879 27.093 7.83876 27.0472 7.65014 27.0484C6.40242 27.0564 5.15409 27.0527 3.90576 27.0521C3.38445 27.0521 3.26908 26.9349 3.26908 26.405C3.26908 24.2234 3.26725 22.0417 3.27214 19.86C3.27214 19.6689 3.22574 19.5102 3.12258 19.3497C2.5152 18.4023 1.9182 17.4476 1.31143 16.5002C1.15272 16.253 1.07031 15.9941 1.07031 15.6993C1.07275 11.1534 1.07153 6.60695 1.07214 2.06107C1.07214 1.90847 1.0813 1.7583 1.14417 1.61424C1.30411 1.24737 1.58491 1.03006 1.97619 0.987327C2.4096 0.939713 2.74289 1.12528 2.97546 1.49337C3.72874 2.68493 4.48872 3.87161 5.22795 5.07111C5.37018 5.30185 5.52157 5.37144 5.78406 5.37144C12.6227 5.36411 19.462 5.36533 26.3006 5.36594C26.7792 5.36594 26.9281 5.49596 26.9281 5.93608C26.9294 12.7857 26.9294 19.6354 26.9281 26.485C26.9281 26.9099 26.7841 27.0515 26.3641 27.0527C25.4308 27.0545 24.4974 27.0533 23.5634 27.0533C21.7065 27.0533 19.8496 27.0527 17.9927 27.0551C17.8822 27.0551 17.7448 26.9996 17.6813 27.1626C17.5007 27.6259 17.1313 27.8719 16.6796 28.0196L16.6802 28.019ZM15.2781 22.3585C15.3623 22.4983 15.4118 22.585 15.4661 22.6686C16.1687 23.7478 16.8786 24.8228 17.5684 25.9106C17.682 26.0901 17.7894 26.156 17.9963 26.1554C20.5638 26.1493 23.1319 26.1474 25.6993 26.1566C25.9606 26.1578 26.043 26.0986 26.0424 25.8227C26.0345 19.4083 26.0345 12.9933 26.0424 6.57887C26.0424 6.31638 25.9606 6.2645 25.7158 6.26572C23.3919 6.27487 21.0674 6.27487 18.7435 6.26572C18.495 6.2645 18.4187 6.3231 18.4206 6.5807C18.4322 8.22459 18.4267 9.86909 18.4267 11.5136C18.4267 11.9702 18.4242 12.4268 18.4273 12.884C18.4291 13.1282 18.4035 13.3565 18.1428 13.4688C17.8761 13.5842 17.7003 13.4352 17.5354 13.2539C17.4054 13.1111 17.2656 12.978 17.1405 12.8315C17.052 12.7277 16.9903 12.732 16.9018 12.8327C16.7547 13 16.5984 13.1605 16.4391 13.3168C16.1858 13.5652 15.9209 13.5628 15.6675 13.3101C15.5168 13.1593 15.3696 13.0049 15.2311 12.8431C15.1365 12.732 15.0675 12.7228 14.968 12.8394C14.8233 13.0091 14.6695 13.1721 14.5095 13.3272C14.2684 13.5616 14.0011 13.5579 13.7593 13.3223C13.6287 13.1947 13.4962 13.0665 13.3839 12.9237C13.2429 12.7442 13.1318 12.7051 12.9755 12.9133C12.8486 13.0824 12.6905 13.2301 12.5354 13.3766C12.4109 13.4944 12.2601 13.5414 12.0867 13.4804C11.9048 13.4163 11.8041 13.2869 11.7815 13.1001C11.7693 13 11.7718 12.8974 11.7718 12.7961C11.7718 10.7255 11.7669 8.65494 11.7773 6.58436C11.7785 6.32981 11.7089 6.2645 11.4568 6.26572C9.74148 6.27671 8.02678 6.27121 6.31147 6.27304C6.22601 6.27304 6.13261 6.24313 6.03555 6.31577C6.08744 6.40245 6.13627 6.48853 6.18877 6.57154C7.65136 8.8863 9.11456 11.2004 10.5772 13.5152C11.3518 14.7409 12.1264 15.9673 12.9005 17.1936C13.1654 17.6142 13.1226 17.7937 12.699 18.0647C12.5464 18.1624 12.3938 18.2601 12.2217 18.3699C12.2778 18.406 12.3077 18.4346 12.3431 18.4462C13.4279 18.8119 14.5065 19.1898 15.6877 19.0628C16.129 19.0152 16.5801 19.0518 17.0263 19.0573C17.1674 19.0591 17.312 19.0671 17.4475 19.1018C18.2814 19.3124 18.7966 20.0822 18.6879 20.9429C18.5878 21.7346 17.8962 22.3451 17.0685 22.3579C16.4916 22.3664 15.9141 22.3597 15.2793 22.3597L15.2781 22.3585ZM1.9652 8.88812C1.9652 11.1003 1.96703 13.3125 1.96276 15.5241C1.96276 15.7347 2.00793 15.916 2.1227 16.0961C3.22269 17.8236 4.32086 19.5523 5.40742 21.2884C5.53073 21.485 5.61008 21.4923 5.79687 21.3733C7.76246 20.1188 9.73171 18.8699 11.7071 17.6313C11.9348 17.4885 11.9738 17.3987 11.8206 17.1576C9.0114 12.732 6.21319 8.30028 3.41192 3.86978C3.02735 3.26118 2.64339 2.65258 2.2576 2.04459C2.2106 1.97073 2.1758 1.86268 2.05738 1.89809C1.94201 1.93288 1.9707 2.04337 1.96642 2.13005C1.96215 2.21124 1.9652 2.29243 1.9652 2.37361C1.9652 4.54491 1.9652 6.71682 1.9652 8.88812ZM13.0268 27.1131C14.1018 27.1131 15.1774 27.1107 16.2523 27.115C16.4855 27.1156 16.7053 27.104 16.8274 26.8659C16.9446 26.637 16.856 26.4417 16.7266 26.2439C15.8653 24.9296 15.0101 23.6117 14.15 22.2968C14.0285 22.1113 13.926 21.9275 14.0395 21.7053C14.1604 21.4691 14.3807 21.4502 14.6133 21.4514C15.4148 21.4544 16.2163 21.4569 17.0172 21.4508C17.4714 21.4471 17.7851 21.1511 17.8004 20.7317C17.8162 20.3001 17.5074 19.9717 17.0453 19.9497C16.7315 19.9351 16.4147 19.9259 16.1022 19.9497C14.8312 20.0444 13.5994 19.8978 12.4103 19.4187C12.0916 19.2905 11.7516 19.2172 11.4281 19.1C11.2474 19.0347 11.1101 19.0609 10.9495 19.1641C9.74636 19.9351 8.53893 20.7006 7.32661 21.4575C7.16058 21.5613 7.09282 21.6821 7.07512 21.8683C6.98904 22.7479 7.11724 23.5867 7.52806 24.3754C7.86501 25.0224 8.20502 25.6676 8.53954 26.3159C8.81728 26.8543 9.24886 27.1217 9.86112 27.1168C10.9159 27.1076 11.9708 27.1144 13.0262 27.1144L13.0268 27.1131ZM12.6728 11.878C13.1519 11.5038 13.293 11.5148 13.6659 11.914C13.7563 12.0105 13.8594 12.0978 13.9339 12.2046C14.0847 12.4201 14.2037 12.3737 14.3472 12.1942C14.4735 12.0361 14.6188 11.8921 14.7659 11.7529C14.9643 11.5649 15.2164 11.5649 15.4197 11.7449C15.4954 11.8121 15.5625 11.889 15.6327 11.9616C15.9205 12.2612 16.2027 12.263 16.4794 11.9671C16.9122 11.5044 16.9775 11.4959 17.511 11.8487C17.5159 11.7919 17.5226 11.7443 17.5226 11.6973C17.5226 9.97164 17.5184 8.24595 17.5287 6.52088C17.53 6.2822 17.4262 6.26694 17.2382 6.26816C15.8275 6.27365 14.4168 6.27793 13.0061 6.26511C12.7454 6.26266 12.6624 6.31882 12.6654 6.59596C12.6807 7.98652 12.6728 9.37708 12.6728 10.7676C12.6728 11.1199 12.6728 11.4727 12.6728 11.8786V11.878ZM4.21342 21.079C4.1829 21.1657 4.17069 21.1846 4.17069 21.2036C4.16886 22.7846 4.16886 24.3656 4.16397 25.9466C4.16397 26.109 4.22807 26.156 4.38068 26.1529C4.7451 26.1456 5.11014 26.1511 5.47518 26.1511C6.11125 26.1511 6.74731 26.1511 7.44382 26.1511C6.76441 24.8991 6.05814 23.7069 6.15886 22.212C6.00992 22.3011 5.91591 22.3554 5.82434 22.4128C5.37995 22.6924 5.21452 22.6558 4.93373 22.2144C4.70237 21.8506 4.47163 21.4862 4.21281 21.079H4.21342Z"/>
</mask>
<path d="M16.6802 28.019H9.43321C8.918 27.878 8.43027 27.6808 8.08904 27.2462C7.96879 27.093 7.83876 27.0472 7.65014 27.0484C6.40242 27.0564 5.15409 27.0527 3.90576 27.0521C3.38445 27.0521 3.26908 26.9349 3.26908 26.405C3.26908 24.2234 3.26725 22.0417 3.27214 19.86C3.27214 19.6689 3.22574 19.5102 3.12258 19.3497C2.5152 18.4023 1.9182 17.4476 1.31143 16.5002C1.15272 16.253 1.07031 15.9941 1.07031 15.6993C1.07275 11.1534 1.07153 6.60695 1.07214 2.06107C1.07214 1.90847 1.0813 1.7583 1.14417 1.61424C1.30411 1.24737 1.58491 1.03006 1.97619 0.987327C2.4096 0.939713 2.74289 1.12528 2.97546 1.49337C3.72874 2.68493 4.48872 3.87161 5.22795 5.07111C5.37018 5.30185 5.52157 5.37144 5.78406 5.37144C12.6227 5.36411 19.462 5.36533 26.3006 5.36594C26.7792 5.36594 26.9281 5.49596 26.9281 5.93608C26.9294 12.7857 26.9294 19.6354 26.9281 26.485C26.9281 26.9099 26.7841 27.0515 26.3641 27.0527C25.4308 27.0545 24.4974 27.0533 23.5634 27.0533C21.7065 27.0533 19.8496 27.0527 17.9927 27.0551C17.8822 27.0551 17.7448 26.9996 17.6813 27.1626C17.5007 27.6259 17.1313 27.8719 16.6796 28.0196L16.6802 28.019ZM15.2781 22.3585C15.3623 22.4983 15.4118 22.585 15.4661 22.6686C16.1687 23.7478 16.8786 24.8228 17.5684 25.9106C17.682 26.0901 17.7894 26.156 17.9963 26.1554C20.5638 26.1493 23.1319 26.1474 25.6993 26.1566C25.9606 26.1578 26.043 26.0986 26.0424 25.8227C26.0345 19.4083 26.0345 12.9933 26.0424 6.57887C26.0424 6.31638 25.9606 6.2645 25.7158 6.26572C23.3919 6.27487 21.0674 6.27487 18.7435 6.26572C18.495 6.2645 18.4187 6.3231 18.4206 6.5807C18.4322 8.22459 18.4267 9.86909 18.4267 11.5136C18.4267 11.9702 18.4242 12.4268 18.4273 12.884C18.4291 13.1282 18.4035 13.3565 18.1428 13.4688C17.8761 13.5842 17.7003 13.4352 17.5354 13.2539C17.4054 13.1111 17.2656 12.978 17.1405 12.8315C17.052 12.7277 16.9903 12.732 16.9018 12.8327C16.7547 13 16.5984 13.1605 16.4391 13.3168C16.1858 13.5652 15.9209 13.5628 15.6675 13.3101C15.5168 13.1593 15.3696 13.0049 15.2311 12.8431C15.1365 12.732 15.0675 12.7228 14.968 12.8394C14.8233 13.0091 14.6695 13.1721 14.5095 13.3272C14.2684 13.5616 14.0011 13.5579 13.7593 13.3223C13.6287 13.1947 13.4962 13.0665 13.3839 12.9237C13.2429 12.7442 13.1318 12.7051 12.9755 12.9133C12.8486 13.0824 12.6905 13.2301 12.5354 13.3766C12.4109 13.4944 12.2601 13.5414 12.0867 13.4804C11.9048 13.4163 11.8041 13.2869 11.7815 13.1001C11.7693 13 11.7718 12.8974 11.7718 12.7961C11.7718 10.7255 11.7669 8.65494 11.7773 6.58436C11.7785 6.32981 11.7089 6.2645 11.4568 6.26572C9.74148 6.27671 8.02678 6.27121 6.31147 6.27304C6.22601 6.27304 6.13261 6.24313 6.03555 6.31577C6.08744 6.40245 6.13627 6.48853 6.18877 6.57154C7.65136 8.8863 9.11456 11.2004 10.5772 13.5152C11.3518 14.7409 12.1264 15.9673 12.9005 17.1936C13.1654 17.6142 13.1226 17.7937 12.699 18.0647C12.5464 18.1624 12.3938 18.2601 12.2217 18.3699C12.2778 18.406 12.3077 18.4346 12.3431 18.4462C13.4279 18.8119 14.5065 19.1898 15.6877 19.0628C16.129 19.0152 16.5801 19.0518 17.0263 19.0573C17.1674 19.0591 17.312 19.0671 17.4475 19.1018C18.2814 19.3124 18.7966 20.0822 18.6879 20.9429C18.5878 21.7346 17.8962 22.3451 17.0685 22.3579C16.4916 22.3664 15.9141 22.3597 15.2793 22.3597L15.2781 22.3585ZM1.9652 8.88812C1.9652 11.1003 1.96703 13.3125 1.96276 15.5241C1.96276 15.7347 2.00793 15.916 2.1227 16.0961C3.22269 17.8236 4.32086 19.5523 5.40742 21.2884C5.53073 21.485 5.61008 21.4923 5.79687 21.3733C7.76246 20.1188 9.73171 18.8699 11.7071 17.6313C11.9348 17.4885 11.9738 17.3987 11.8206 17.1576C9.0114 12.732 6.21319 8.30028 3.41192 3.86978C3.02735 3.26118 2.64339 2.65258 2.2576 2.04459C2.2106 1.97073 2.1758 1.86268 2.05738 1.89809C1.94201 1.93288 1.9707 2.04337 1.96642 2.13005C1.96215 2.21124 1.9652 2.29243 1.9652 2.37361C1.9652 4.54491 1.9652 6.71682 1.9652 8.88812ZM13.0268 27.1131C14.1018 27.1131 15.1774 27.1107 16.2523 27.115C16.4855 27.1156 16.7053 27.104 16.8274 26.8659C16.9446 26.637 16.856 26.4417 16.7266 26.2439C15.8653 24.9296 15.0101 23.6117 14.15 22.2968C14.0285 22.1113 13.926 21.9275 14.0395 21.7053C14.1604 21.4691 14.3807 21.4502 14.6133 21.4514C15.4148 21.4544 16.2163 21.4569 17.0172 21.4508C17.4714 21.4471 17.7851 21.1511 17.8004 20.7317C17.8162 20.3001 17.5074 19.9717 17.0453 19.9497C16.7315 19.9351 16.4147 19.9259 16.1022 19.9497C14.8312 20.0444 13.5994 19.8978 12.4103 19.4187C12.0916 19.2905 11.7516 19.2172 11.4281 19.1C11.2474 19.0347 11.1101 19.0609 10.9495 19.1641C9.74636 19.9351 8.53893 20.7006 7.32661 21.4575C7.16058 21.5613 7.09282 21.6821 7.07512 21.8683C6.98904 22.7479 7.11724 23.5867 7.52806 24.3754C7.86501 25.0224 8.20502 25.6676 8.53954 26.3159C8.81728 26.8543 9.24886 27.1217 9.86112 27.1168C10.9159 27.1076 11.9708 27.1144 13.0262 27.1144L13.0268 27.1131ZM12.6728 11.878C13.1519 11.5038 13.293 11.5148 13.6659 11.914C13.7563 12.0105 13.8594 12.0978 13.9339 12.2046C14.0847 12.4201 14.2037 12.3737 14.3472 12.1942C14.4735 12.0361 14.6188 11.8921 14.7659 11.7529C14.9643 11.5649 15.2164 11.5649 15.4197 11.7449C15.4954 11.8121 15.5625 11.889 15.6327 11.9616C15.9205 12.2612 16.2027 12.263 16.4794 11.9671C16.9122 11.5044 16.9775 11.4959 17.511 11.8487C17.5159 11.7919 17.5226 11.7443 17.5226 11.6973C17.5226 9.97164 17.5184 8.24595 17.5287 6.52088C17.53 6.2822 17.4262 6.26694 17.2382 6.26816C15.8275 6.27365 14.4168 6.27793 13.0061 6.26511C12.7454 6.26266 12.6624 6.31882 12.6654 6.59596C12.6807 7.98652 12.6728 9.37708 12.6728 10.7676C12.6728 11.1199 12.6728 11.4727 12.6728 11.8786V11.878ZM4.21342 21.079C4.1829 21.1657 4.17069 21.1846 4.17069 21.2036C4.16886 22.7846 4.16886 24.3656 4.16397 25.9466C4.16397 26.109 4.22807 26.156 4.38068 26.1529C4.7451 26.1456 5.11014 26.1511 5.47518 26.1511C6.11125 26.1511 6.74731 26.1511 7.44382 26.1511C6.76441 24.8991 6.05814 23.7069 6.15886 22.212C6.00992 22.3011 5.91591 22.3554 5.82434 22.4128C5.37995 22.6924 5.21452 22.6558 4.93373 22.2144C4.70237 21.8506 4.47163 21.4862 4.21281 21.079H4.21342Z" fill="#0D0D0D"/>
<path d="M16.6802 28.019H9.43321C8.918 27.878 8.43027 27.6808 8.08904 27.2462C7.96879 27.093 7.83876 27.0472 7.65014 27.0484C6.40242 27.0564 5.15409 27.0527 3.90576 27.0521C3.38445 27.0521 3.26908 26.9349 3.26908 26.405C3.26908 24.2234 3.26725 22.0417 3.27214 19.86C3.27214 19.6689 3.22574 19.5102 3.12258 19.3497C2.5152 18.4023 1.9182 17.4476 1.31143 16.5002C1.15272 16.253 1.07031 15.9941 1.07031 15.6993C1.07275 11.1534 1.07153 6.60695 1.07214 2.06107C1.07214 1.90847 1.0813 1.7583 1.14417 1.61424C1.30411 1.24737 1.58491 1.03006 1.97619 0.987327C2.4096 0.939713 2.74289 1.12528 2.97546 1.49337C3.72874 2.68493 4.48872 3.87161 5.22795 5.07111C5.37018 5.30185 5.52157 5.37144 5.78406 5.37144C12.6227 5.36411 19.462 5.36533 26.3006 5.36594C26.7792 5.36594 26.9281 5.49596 26.9281 5.93608C26.9294 12.7857 26.9294 19.6354 26.9281 26.485C26.9281 26.9099 26.7841 27.0515 26.3641 27.0527C25.4308 27.0545 24.4974 27.0533 23.5634 27.0533C21.7065 27.0533 19.8496 27.0527 17.9927 27.0551C17.8822 27.0551 17.7448 26.9996 17.6813 27.1626C17.5007 27.6259 17.1313 27.8719 16.6796 28.0196L16.6802 28.019ZM15.2781 22.3585C15.3623 22.4983 15.4118 22.585 15.4661 22.6686C16.1687 23.7478 16.8786 24.8228 17.5684 25.9106C17.682 26.0901 17.7894 26.156 17.9963 26.1554C20.5638 26.1493 23.1319 26.1474 25.6993 26.1566C25.9606 26.1578 26.043 26.0986 26.0424 25.8227C26.0345 19.4083 26.0345 12.9933 26.0424 6.57887C26.0424 6.31638 25.9606 6.2645 25.7158 6.26572C23.3919 6.27487 21.0674 6.27487 18.7435 6.26572C18.495 6.2645 18.4187 6.3231 18.4206 6.5807C18.4322 8.22459 18.4267 9.86909 18.4267 11.5136C18.4267 11.9702 18.4242 12.4268 18.4273 12.884C18.4291 13.1282 18.4035 13.3565 18.1428 13.4688C17.8761 13.5842 17.7003 13.4352 17.5354 13.2539C17.4054 13.1111 17.2656 12.978 17.1405 12.8315C17.052 12.7277 16.9903 12.732 16.9018 12.8327C16.7547 13 16.5984 13.1605 16.4391 13.3168C16.1858 13.5652 15.9209 13.5628 15.6675 13.3101C15.5168 13.1593 15.3696 13.0049 15.2311 12.8431C15.1365 12.732 15.0675 12.7228 14.968 12.8394C14.8233 13.0091 14.6695 13.1721 14.5095 13.3272C14.2684 13.5616 14.0011 13.5579 13.7593 13.3223C13.6287 13.1947 13.4962 13.0665 13.3839 12.9237C13.2429 12.7442 13.1318 12.7051 12.9755 12.9133C12.8486 13.0824 12.6905 13.2301 12.5354 13.3766C12.4109 13.4944 12.2601 13.5414 12.0867 13.4804C11.9048 13.4163 11.8041 13.2869 11.7815 13.1001C11.7693 13 11.7718 12.8974 11.7718 12.7961C11.7718 10.7255 11.7669 8.65494 11.7773 6.58436C11.7785 6.32981 11.7089 6.2645 11.4568 6.26572C9.74148 6.27671 8.02678 6.27121 6.31147 6.27304C6.22601 6.27304 6.13261 6.24313 6.03555 6.31577C6.08744 6.40245 6.13627 6.48853 6.18877 6.57154C7.65136 8.8863 9.11456 11.2004 10.5772 13.5152C11.3518 14.7409 12.1264 15.9673 12.9005 17.1936C13.1654 17.6142 13.1226 17.7937 12.699 18.0647C12.5464 18.1624 12.3938 18.2601 12.2217 18.3699C12.2778 18.406 12.3077 18.4346 12.3431 18.4462C13.4279 18.8119 14.5065 19.1898 15.6877 19.0628C16.129 19.0152 16.5801 19.0518 17.0263 19.0573C17.1674 19.0591 17.312 19.0671 17.4475 19.1018C18.2814 19.3124 18.7966 20.0822 18.6879 20.9429C18.5878 21.7346 17.8962 22.3451 17.0685 22.3579C16.4916 22.3664 15.9141 22.3597 15.2793 22.3597L15.2781 22.3585ZM1.9652 8.88812C1.9652 11.1003 1.96703 13.3125 1.96276 15.5241C1.96276 15.7347 2.00793 15.916 2.1227 16.0961C3.22269 17.8236 4.32086 19.5523 5.40742 21.2884C5.53073 21.485 5.61008 21.4923 5.79687 21.3733C7.76246 20.1188 9.73171 18.8699 11.7071 17.6313C11.9348 17.4885 11.9738 17.3987 11.8206 17.1576C9.0114 12.732 6.21319 8.30028 3.41192 3.86978C3.02735 3.26118 2.64339 2.65258 2.2576 2.04459C2.2106 1.97073 2.1758 1.86268 2.05738 1.89809C1.94201 1.93288 1.9707 2.04337 1.96642 2.13005C1.96215 2.21124 1.9652 2.29243 1.9652 2.37361C1.9652 4.54491 1.9652 6.71682 1.9652 8.88812ZM13.0268 27.1131C14.1018 27.1131 15.1774 27.1107 16.2523 27.115C16.4855 27.1156 16.7053 27.104 16.8274 26.8659C16.9446 26.637 16.856 26.4417 16.7266 26.2439C15.8653 24.9296 15.0101 23.6117 14.15 22.2968C14.0285 22.1113 13.926 21.9275 14.0395 21.7053C14.1604 21.4691 14.3807 21.4502 14.6133 21.4514C15.4148 21.4544 16.2163 21.4569 17.0172 21.4508C17.4714 21.4471 17.7851 21.1511 17.8004 20.7317C17.8162 20.3001 17.5074 19.9717 17.0453 19.9497C16.7315 19.9351 16.4147 19.9259 16.1022 19.9497C14.8312 20.0444 13.5994 19.8978 12.4103 19.4187C12.0916 19.2905 11.7516 19.2172 11.4281 19.1C11.2474 19.0347 11.1101 19.0609 10.9495 19.1641C9.74636 19.9351 8.53893 20.7006 7.32661 21.4575C7.16058 21.5613 7.09282 21.6821 7.07512 21.8683C6.98904 22.7479 7.11724 23.5867 7.52806 24.3754C7.86501 25.0224 8.20502 25.6676 8.53954 26.3159C8.81728 26.8543 9.24886 27.1217 9.86112 27.1168C10.9159 27.1076 11.9708 27.1144 13.0262 27.1144L13.0268 27.1131ZM12.6728 11.878C13.1519 11.5038 13.293 11.5148 13.6659 11.914C13.7563 12.0105 13.8594 12.0978 13.9339 12.2046C14.0847 12.4201 14.2037 12.3737 14.3472 12.1942C14.4735 12.0361 14.6188 11.8921 14.7659 11.7529C14.9643 11.5649 15.2164 11.5649 15.4197 11.7449C15.4954 11.8121 15.5625 11.889 15.6327 11.9616C15.9205 12.2612 16.2027 12.263 16.4794 11.9671C16.9122 11.5044 16.9775 11.4959 17.511 11.8487C17.5159 11.7919 17.5226 11.7443 17.5226 11.6973C17.5226 9.97164 17.5184 8.24595 17.5287 6.52088C17.53 6.2822 17.4262 6.26694 17.2382 6.26816C15.8275 6.27365 14.4168 6.27793 13.0061 6.26511C12.7454 6.26266 12.6624 6.31882 12.6654 6.59596C12.6807 7.98652 12.6728 9.37708 12.6728 10.7676C12.6728 11.1199 12.6728 11.4727 12.6728 11.8786V11.878ZM4.21342 21.079C4.1829 21.1657 4.17069 21.1846 4.17069 21.2036C4.16886 22.7846 4.16886 24.3656 4.16397 25.9466C4.16397 26.109 4.22807 26.156 4.38068 26.1529C4.7451 26.1456 5.11014 26.1511 5.47518 26.1511C6.11125 26.1511 6.74731 26.1511 7.44382 26.1511C6.76441 24.8991 6.05814 23.7069 6.15886 22.212C6.00992 22.3011 5.91591 22.3554 5.82434 22.4128C5.37995 22.6924 5.21452 22.6558 4.93373 22.2144C4.70237 21.8506 4.47163 21.4862 4.21281 21.079H4.21342Z" stroke="#0D0D0D" stroke-width="0.4" mask="url(#path-1-outside-1_1393_5975)"/>
<path d="M19.4935 25.0757L19.4934 25.0757C19.3019 25.075 19.1363 25.0268 19.0175 24.9282C18.8961 24.8275 18.834 24.6828 18.8377 24.5145L18.8377 24.5144C18.8413 24.3527 18.9039 24.2134 19.0218 24.116C19.1377 24.0203 19.2973 23.9732 19.4826 23.9729L19.4935 25.0757ZM19.4935 25.0757C20.0732 25.077 20.6532 25.0768 21.233 25.0765C21.4648 25.0764 21.6965 25.0763 21.9281 25.0763H21.9287C22.199 25.0763 22.4694 25.0765 22.7398 25.0767C23.2809 25.0771 23.8224 25.0775 24.3634 25.0763L24.3635 25.0763C24.5584 25.0757 24.7251 25.0331 24.8462 24.9403C24.9708 24.8449 25.0354 24.7054 25.0394 24.5392L25.0394 24.539M19.4935 25.0757L25.0394 24.539M25.0394 24.539C25.043 24.371 24.9802 24.2252 24.859 24.1232C24.74 24.0231 24.5741 23.9729 24.3822 23.9729M25.0394 24.539L24.3631 24.9763M24.3631 24.9763C24.7276 24.9751 24.9327 24.8164 24.9394 24.5368C24.9455 24.2566 24.7331 24.0729 24.3821 24.0729M24.3631 24.9763C23.8223 24.9775 23.2811 24.9771 22.7401 24.9767C22.4696 24.9765 22.1991 24.9763 21.9287 24.9763H21.9281C21.6964 24.9763 21.4646 24.9764 21.2328 24.9765M24.3631 24.9763L21.2328 24.9765M24.3821 24.0729L24.3822 23.9729M24.3821 24.0729V23.9729C24.3821 23.9729 24.3822 23.9729 24.3822 23.9729M24.3821 24.0729C22.7492 24.0704 21.1156 24.0698 19.4827 24.0729L24.3822 23.9729M21.2328 24.9765C20.6531 24.9768 20.0733 24.977 19.4937 24.9757L21.2328 24.9765Z" fill="#0D0D0D" stroke="#0D0D0D" stroke-width="0.2"/>
<path d="M22.958 23.2573C22.9155 23.2574 22.873 23.2576 22.8304 23.2577C22.5477 23.2586 22.2639 23.2595 21.9807 23.2557L21.9806 23.2557C21.8135 23.2533 21.6682 23.2058 21.5622 23.1124C21.4551 23.018 21.3976 22.8851 21.3925 22.7323L21.3925 22.7323C21.3875 22.5788 21.4358 22.437 21.5353 22.3325C21.635 22.2278 21.7783 22.1688 21.9476 22.1663L21.9477 22.1663C22.7911 22.1547 23.6343 22.1553 24.4769 22.1663L22.958 23.2573ZM22.958 23.2573L22.9575 23.2579L23.1994 23.2575C23.3372 23.2573 23.4756 23.2577 23.6141 23.2581L22.958 23.2573ZM25.0383 22.7303C25.048 22.4216 24.8185 22.1707 24.477 22.1663L25.0383 22.7303ZM24.867 23.11C24.9742 23.0154 25.0336 22.8824 25.0383 22.7303L24.4491 23.2557C24.6154 23.2533 24.7607 23.2038 24.867 23.11Z" fill="#0D0D0D" stroke="#0D0D0D" stroke-width="0.2"/>
<path d="M19.8401 23.2548H19.9401V23.2546C19.9597 23.255 19.9794 23.2554 19.9994 23.2558C20.1276 23.2584 20.2625 23.2612 20.393 23.2502C20.5362 23.2381 20.657 23.1861 20.7436 23.0929C20.8296 23.0002 20.8727 22.8767 20.88 22.7383L20.88 22.7381C20.8867 22.6077 20.8591 22.4822 20.7891 22.3818C20.7178 22.2796 20.6083 22.212 20.4691 22.1904C20.0698 22.1277 19.6622 22.129 19.2638 22.1885L19.2637 22.1885C19.1191 22.2101 19.0032 22.2792 18.9285 22.3855C18.8547 22.4905 18.8274 22.6227 18.8408 22.7615L18.8408 22.7616C18.8542 22.8985 18.9037 23.0187 18.9939 23.1072C19.0844 23.1959 19.2069 23.244 19.3499 23.2528L19.35 23.2528C19.4647 23.2598 19.5825 23.258 19.6959 23.2563C19.745 23.2555 19.7933 23.2548 19.8401 23.2548ZM20.4536 22.2892C20.6825 22.3246 20.7918 22.5053 20.7802 22.733L19.356 23.153C19.1082 23.1377 18.9635 22.9894 18.9403 22.7519C18.9171 22.5114 19.0374 22.3234 19.2785 22.2874C19.6673 22.2294 20.0647 22.2282 20.4536 22.2892Z" fill="#0D0D0D" stroke="#0D0D0D" stroke-width="0.2"/>
<path d="M9.43491 17.703L9.43488 17.703C9.32353 17.766 9.20888 17.7817 9.09936 17.7563C8.99204 17.7315 8.89725 17.669 8.81805 17.5884L8.81801 17.5883C8.74122 17.5101 8.68846 17.4194 8.66765 17.318C8.64679 17.2163 8.65945 17.111 8.70213 17.0063L9.43491 17.703ZM9.43491 17.703C9.69972 17.5531 9.96244 17.393 10.2117 17.2145M9.43491 17.703L10.0009 16.2562M10.0009 16.2562V16.2398L9.90419 16.2366C9.85929 16.2351 9.80945 16.2467 9.76278 16.2619C9.71409 16.2776 9.66 16.3001 9.60367 16.3268C9.49089 16.3802 9.36291 16.4533 9.24061 16.532C9.1183 16.6106 8.99938 16.6963 8.90513 16.7755C8.85806 16.8151 8.81581 16.8541 8.782 16.8909C8.74986 16.9258 8.71877 16.9654 8.70215 17.0063L10.0009 16.2562ZM10.0009 16.2562C10.1704 16.302 10.3189 16.4073 10.3898 16.6142L10.2952 16.6466L10.3897 16.614C10.4291 16.7281 10.4364 16.8425 10.4058 16.9485C10.3751 17.055 10.3081 17.1456 10.2117 17.2145M10.2117 17.2145C10.2117 17.2145 10.2117 17.2145 10.2117 17.2145L10.1536 17.1331L10.2118 17.2144C10.2118 17.2144 10.2118 17.2144 10.2117 17.2145Z" fill="#0D0D0D" stroke="#0D0D0D" stroke-width="0.2"/>
</svg>
