<svg width="495" height="669" viewBox="0 0 495 669" fill="none" xmlns="http://www.w3.org/2000/svg">
<path d="M407.13 595.297C403.2 602.807 399.47 610.026 395.66 617.216C388.22 631.246 380.75 645.257 373.25 659.247C371.03 663.387 368.09 666.836 363.35 668.216C355.67 670.456 348.06 666.807 345.27 658.937C342.14 650.097 339.52 641.077 336.77 632.107C326.33 598.047 315.92 563.977 305.5 529.917C300.76 514.427 296.01 498.946 291.27 483.466C291.1 482.916 290.9 482.376 290.58 481.436C289.41 482.326 288.41 483.116 287.37 483.846C281.79 487.766 276.35 491.907 270.57 495.517C255.25 505.087 239.78 504.996 224.53 495.306C217.87 491.066 211.44 486.466 204.68 481.876C203.54 485.536 202.38 489.216 201.25 492.916C184.74 546.926 168.24 600.937 151.74 654.947C150.23 659.887 148.26 664.547 143.32 667.087C136.83 670.427 129.23 669.067 124.95 663.187C121.85 658.907 119.46 654.087 116.97 649.397C107.6 631.787 98.31 614.127 88.99 596.497C88.84 596.207 88.63 595.957 88.24 595.377C85.53 596.827 82.86 598.267 80.18 599.687C62.12 609.287 44.1 618.957 25.97 628.427C23 629.977 19.67 631.037 16.38 631.697C12.14 632.537 8.5 630.726 5.66 627.596C3.88 625.636 2.03001 623.557 0.960007 621.187C0.0700067 619.217 0.29 616.737 0 614.367C1.53 614.297 2.58 614.247 4.2 614.177C2.78 613.397 1.81 612.867 0.970001 612.397C3.81 603.817 6.77999 595.367 9.39999 586.807C26.49 531.067 43.5 475.296 60.55 419.546C61.09 417.776 61.34 416.357 59.3 415.137C49.41 409.197 45.03 399.796 43.83 388.836C43.02 381.406 42.81 373.886 42.73 366.396C42.63 356.446 38.63 348.766 30.91 342.516C24.08 336.976 17.09 331.376 11.4 324.736C1.03999 312.656 0.179997 298.517 5.45 283.887C7.45 278.347 9.71001 272.866 12.32 267.586C17.69 256.726 17.37 246.146 12.44 235.176C8.91 227.326 5.55001 219.257 3.43001 210.947C-0.189992 196.767 4.43001 184.447 14.6 174.297C19.3 169.607 24.39 165.237 29.69 161.237C38.63 154.507 43.1 145.887 42.75 134.657C42.46 125.487 42.72 116.326 45.19 107.396C48.35 95.9865 55.67 88.1265 66.31 83.2665C73.92 79.7965 81.96 77.7065 90.17 76.2765C100.26 74.5165 107.11 68.7865 111.31 59.5565C115.52 50.3165 119.78 41.0865 126.87 33.5665C135.9 23.9865 147.18 20.5465 159.96 22.0465C167.04 22.8765 174.07 24.3065 181.04 25.8665C190.66 28.0165 199.09 25.9265 206.85 19.9865C212.59 15.5865 218.34 11.1365 224.46 7.3065C240.06 -2.4535 255.84 -2.5135 271.37 7.5965C276.66 11.0465 281.8 14.7565 286.81 18.5965C292.27 22.7865 298.05 26.3865 305.05 26.4065C309.88 26.4165 314.72 25.2365 319.55 24.5265C325.47 23.6565 331.35 22.2965 337.29 21.8765C353.68 20.7165 366.22 27.5065 374.78 41.4165C377.91 46.4965 380.87 51.7665 383.1 57.2765C387.68 68.6065 395.73 74.8665 407.75 76.8565C416.52 78.3065 425.1 80.8265 432.95 85.2065C444.02 91.3865 449.98 101.146 451.6 113.466C452.48 120.126 452.86 126.927 452.67 133.637C452.31 145.767 457.1 154.857 466.78 162.017C472.31 166.097 477.46 170.817 482.2 175.797C492.88 187.017 495.75 200.327 491.06 215.047C489.05 221.357 486.84 227.717 483.82 233.587C477.72 245.437 478.17 256.906 483.62 268.796C486.79 275.716 489.46 282.926 491.64 290.216C495.81 304.136 492.22 316.417 482.15 326.667C477.09 331.817 471.63 336.627 466.05 341.227C460.05 346.177 455.05 351.666 453.51 359.536C453 362.126 452.8 364.816 452.79 367.466C452.76 376.296 452.68 385.126 450.74 393.796C448.73 402.776 444.26 410.166 436.25 415.026C434.11 416.326 434.44 417.817 435.01 419.667C439.18 433.147 443.32 446.647 447.45 460.137C462.54 509.457 477.62 558.777 492.72 608.087C493.89 611.907 495.36 615.677 494.49 619.777C492.27 630.247 481.39 634.927 471.33 629.577C450.93 618.727 430.59 607.747 410.23 596.827C409.29 596.327 408.33 595.876 407.12 595.286L407.13 595.297ZM423.09 132.097C422.75 128.447 422.37 123.216 421.73 118.026C421.21 113.736 418.68 110.846 414.55 109.636C410.26 108.376 405.94 107.106 401.54 106.306C380.29 102.416 365.23 90.7265 356.3 71.0465C354.21 66.4365 351.89 61.9265 349.5 57.4565C346.88 52.5565 342.64 50.9265 337.3 51.9665C332.98 52.8065 328.63 53.5465 324.36 54.5965C303.65 59.6665 284.99 55.6565 268.3 42.3165C264.15 38.9965 259.82 35.8865 255.46 32.8265C250.41 29.2865 245.17 29.2865 240.12 32.7965C235.48 36.0265 230.89 39.3465 226.44 42.8365C211.84 54.2965 195.51 58.9965 177.1 55.7665C171.46 54.7765 165.85 53.5465 160.22 52.4765C151.58 50.8365 149.22 51.8665 144.91 59.4665C143.03 62.7865 141.26 66.1965 139.76 69.7065C131.33 89.4465 116.82 101.707 95.7 106.076C90.83 107.086 86.01 108.407 81.21 109.707C76.27 111.037 73.28 114.107 73.12 119.437C72.95 125.257 73 131.097 72.62 136.907C72.3 141.787 71.89 146.717 70.82 151.477C67.66 165.607 59.24 176.256 48.02 185.036C43.38 188.666 39.01 192.667 34.75 196.747C32.32 199.067 31.43 202.237 32.66 205.497C34.85 211.307 37.04 217.147 39.65 222.777C48.17 241.107 48.67 259.486 40.5 278.036C38.12 283.426 35.76 288.836 33.48 294.266C31.13 299.856 32.35 304.706 36.9 308.656C40.42 311.706 43.92 314.806 47.66 317.586C64.4 330.046 72.83 346.586 72.7 367.496C72.67 372.986 72.93 378.476 73.2 383.966C73.41 388.316 75.6 391.426 79.83 392.676C84.84 394.166 89.87 395.656 94.98 396.676C115.46 400.766 130.09 412.116 138.82 431.156C141.24 436.436 144.01 441.566 146.83 446.646C148.78 450.146 152.12 451.457 155.97 450.917C160.73 450.247 165.51 449.506 170.18 448.356C190.91 443.286 209.75 446.976 226.68 460.076C230.63 463.136 234.56 466.206 238.59 469.156C244.5 473.476 250.52 473.816 256.53 469.316C261.59 465.526 266.53 461.566 271.7 457.936C284.58 448.866 298.87 444.707 314.61 446.697C321.43 447.557 328.16 449.196 334.93 450.486C343.67 452.156 346.79 450.796 351 442.966C353 439.246 354.69 435.346 356.45 431.486C364.69 413.446 378.3 401.886 397.65 397.186C403.38 395.796 409.11 394.406 414.79 392.856C419.23 391.646 422.04 388.836 422.3 384.036C422.54 379.636 422.84 375.226 422.75 370.826C422.56 361.156 423.57 351.727 427.35 342.727C432.04 331.547 440.05 323.186 449.63 316.036C453.54 313.116 457.12 309.697 460.57 306.227C462.91 303.877 463.86 300.737 462.72 297.447C461.09 292.757 459.64 287.946 457.41 283.536C447.33 263.596 446.14 243.517 455.61 223.027C458.05 217.757 460.27 212.387 462.37 206.977C464.03 202.707 463.18 198.677 459.83 195.517C456.27 192.147 452.61 188.847 448.71 185.877C439.08 178.547 431 170.007 426.3 158.657C422.98 150.627 422.28 142.227 423.06 132.067L423.09 132.097ZM174.13 478.676C173.05 478.816 172.4 478.897 171.75 478.977C166.47 479.617 161.21 480.566 155.92 480.836C143.28 481.466 132.92 476.697 124.84 466.917C118.89 459.717 114.86 451.406 111.1 442.986C107.43 434.766 101.48 429.397 92.81 427.007C89.61 426.127 89.62 426.077 88.67 429.197C73.26 479.787 57.85 530.376 42.45 580.966C41.92 582.696 41.46 584.446 40.83 586.656C55.74 578.726 70.14 571.137 84.48 563.427C95.75 557.357 102.97 559.377 108.99 570.587C114.61 581.057 120.16 591.567 125.75 602.057C127.91 606.117 130.11 610.157 132.55 614.667C146.49 569.087 160.26 524.077 174.14 478.697L174.13 478.676ZM454.47 586.427C438.1 532.637 421.93 479.456 405.75 426.276C395.66 428.326 388.51 433.426 384.39 442.816C381.7 448.966 378.46 454.917 375.09 460.727C370.1 469.347 363.12 475.796 353.45 478.966C346.21 481.336 338.86 481.056 331.46 479.986C328.2 479.516 324.93 479.106 321.33 478.616C335.22 524.056 348.98 569.097 362.87 614.536C363.39 613.756 363.63 613.437 363.82 613.077C368.24 604.787 372.61 596.467 377.07 588.207C380.97 580.967 384.7 573.607 389.01 566.607C392.91 560.267 399.01 558.457 405.93 561.237C410.54 563.087 414.94 565.497 419.35 567.807C430.9 573.867 442.41 580.006 454.47 586.406V586.427Z" fill="#0D0D0D"/>
<path d="M247.34 401.365C163.72 400.805 97.0002 333.255 97.7802 249.535C98.5302 168.095 165.7 99.4947 251.3 101.435C333.48 103.305 398.51 171.095 397.74 253.185C396.97 334.715 328.87 401.905 247.35 401.355L247.34 401.365ZM247.54 371.255C312.8 371.255 366.68 318.905 367.62 252.985C368.57 186.035 314.23 131.315 247.62 131.315C181.85 131.315 128.71 184.635 127.82 249.665C126.89 317.175 181.52 371.235 247.54 371.255Z" fill="#0D0D0D"/>
<path d="M238.509 269.967C241.809 265.837 245.059 261.757 248.329 257.697C263.029 239.417 277.709 221.117 292.449 202.877C295.249 199.407 298.479 196.437 303.159 195.667C309.809 194.577 314.649 197.607 318.309 202.697C321.759 207.497 321.889 212.867 318.609 217.667C314.579 223.557 309.989 229.077 305.519 234.647C288.429 255.917 271.259 277.117 254.189 298.397C250.009 303.607 245.069 307.097 238.119 305.697C235.459 305.157 232.649 303.937 230.559 302.227C216.639 290.867 202.799 279.397 189.119 267.757C180.589 260.507 181.159 248.857 190.049 243.107C194.739 240.077 199.849 239.947 204.489 242.677C208.969 245.307 213.069 248.647 217.099 251.957C223.979 257.597 230.679 263.467 237.449 269.227C237.689 269.437 237.979 269.597 238.489 269.957L238.509 269.967Z" fill="#0D0D0D"/>
</svg>
