<svg width="37" height="22" viewBox="0 0 37 22" fill="none" xmlns="http://www.w3.org/2000/svg">
<path d="M13.7165 21.9989C13.3936 21.8968 13.0494 21.8968 12.7297 21.7679C11.8167 21.401 11.1763 20.7661 10.8565 19.8343C10.7772 19.6025 10.6727 19.5334 10.4417 19.5389C9.8147 19.5522 9.18771 19.5475 8.56072 19.5428C6.9846 19.531 5.8964 18.4515 5.8909 16.8753C5.88304 14.7547 5.8909 12.6333 5.88776 10.5127C5.88776 9.9305 5.9514 10.002 5.35662 9.99807C4.79485 9.99414 4.23307 10.0028 3.67129 9.99493C3.16844 9.98865 2.87223 9.71757 2.86987 9.27993C2.86751 8.84465 3.17158 8.56102 3.66579 8.55866C4.61963 8.55316 5.57348 8.55316 6.52654 8.55866C7.06789 8.56181 7.34131 8.83209 7.34916 9.38444C7.35938 10.1041 7.36331 10.8246 7.34602 11.5443C7.33974 11.8233 7.39945 11.9293 7.70823 11.9293C13.5216 11.9199 19.3359 11.9207 25.1493 11.9285C25.4368 11.9285 25.5311 11.8563 25.5303 11.5577C25.5201 8.62545 25.5272 5.69241 25.5217 2.76017C25.5201 1.89904 25.099 1.49127 24.2386 1.49048C17.3276 1.4897 10.4166 1.49048 3.50551 1.49048C3.37508 1.49048 3.24387 1.49519 3.11344 1.48812C2.70959 1.46612 2.42831 1.22805 2.36859 0.863487C2.31202 0.51542 2.51866 0.211354 2.91152 0.0636418C2.95944 0.0455706 3.0058 0.021214 3.05294 0C10.2138 0 17.3747 0 24.5356 0C24.5843 0.0172855 24.6315 0.0424251 24.6818 0.0510678C26.1361 0.30485 26.9155 1.19112 26.9611 2.6816C26.969 2.93774 27.0593 2.98253 27.2832 2.98017C28.2104 2.97074 29.1375 2.98882 30.0646 2.97232C30.903 2.95739 31.5826 3.25988 32.1444 3.8798C33.5225 5.40092 34.9077 6.91576 36.2929 8.42981C36.7659 8.94601 36.9953 9.55101 36.9953 10.2495C36.9953 13.0497 36.9969 15.85 36.9945 18.651C36.9945 19.2678 36.7258 19.5396 36.1122 19.5444C35.3155 19.5506 34.5188 19.5554 33.7229 19.5404C33.4549 19.5357 33.3237 19.6017 33.2216 19.8791C32.8358 20.9358 32.0784 21.6045 30.9855 21.8803C30.7977 21.9274 30.6052 21.9612 30.4158 22.0005H30.1809C30.1188 21.9824 30.0576 21.9557 29.9939 21.9478C28.6433 21.7813 27.7397 21.0474 27.2903 19.7691C27.2015 19.5169 27.0428 19.5459 26.8645 19.5459C23.6501 19.5459 20.4358 19.5483 17.2215 19.5397C16.9732 19.5397 16.8625 19.6096 16.7776 19.8484C16.3981 20.9107 15.6517 21.5864 14.5596 21.8708C14.3592 21.9235 14.1541 21.958 13.9514 22.0013H13.7165V21.9989ZM26.9697 11.2678C26.9697 13.4395 26.9682 15.6119 26.9737 17.7836C26.9737 17.8818 26.8943 18.0413 27.0782 18.0696C27.2432 18.0947 27.2471 17.9486 27.288 17.841C27.8002 16.4801 28.934 15.6536 30.2799 15.6567C31.636 15.6598 32.736 16.462 33.2609 17.848C33.3277 18.0248 33.4094 18.0885 33.594 18.0845C34.1157 18.0735 34.6398 18.0602 35.1607 18.0885C35.4836 18.1057 35.5457 17.9847 35.5441 17.6893C35.5331 15.5569 35.5308 13.4237 35.5457 11.2913C35.548 10.9692 35.4428 10.9071 35.1466 10.9087C33.0967 10.9205 31.0468 10.9158 28.9969 10.9142C28.2724 10.9142 28.032 10.6761 28.0304 9.95171C28.0273 8.32924 28.0336 6.70676 28.0273 5.08429C28.0242 4.30801 28.1334 4.44865 27.3681 4.41251C27.0318 4.39601 26.9619 4.51386 26.9635 4.83128C26.9768 6.97704 26.9705 9.1228 26.9705 11.2686L26.9697 11.2678ZM16.428 15.5758C15.2526 15.5758 14.0771 15.5758 12.9017 15.5758C11.1779 15.5758 9.45406 15.5781 7.73023 15.5726C7.49845 15.5726 7.32245 15.5718 7.34602 15.8924C7.37195 16.2436 7.34602 16.5988 7.35467 16.9523C7.37195 17.643 7.7978 18.0672 8.49158 18.0782C9.10521 18.0877 9.71963 18.0641 10.3325 18.0885C10.6365 18.1002 10.7811 18.017 10.8903 17.7129C11.3735 16.3693 12.6173 15.5931 13.9224 15.6614C15.3256 15.7353 16.3164 16.4786 16.798 17.8307C16.8664 18.0232 16.9544 18.0861 17.1563 18.0861C19.8332 18.079 22.5101 18.0775 25.1878 18.0877C25.4777 18.0885 25.5358 17.9824 25.528 17.7231C25.5123 17.1873 25.5233 16.6498 25.5233 16.114C25.5233 15.7568 25.3509 15.5779 25.0063 15.5773C22.1463 15.5773 19.2864 15.5773 16.4264 15.5773L16.428 15.5758ZM35.2385 9.44729C35.0923 9.27758 35.0122 9.17858 34.9266 9.08508C33.6946 7.7321 32.4485 6.39248 31.2369 5.02143C30.8346 4.56572 30.3852 4.37793 29.7936 4.41015C29.5319 4.42429 29.4691 4.50129 29.4714 4.75193C29.4824 6.04676 29.4769 7.3424 29.4769 8.63723C29.4769 9.1778 29.7488 9.44808 30.2925 9.44808C31.9095 9.44808 33.5272 9.44808 35.2385 9.44808V9.44729ZM16.4217 14.1356C18.1196 14.1356 19.8183 14.1356 21.5162 14.1356C22.7442 14.1356 23.9723 14.1372 25.1996 14.1324C25.3151 14.1324 25.4612 14.1945 25.5193 14.002C25.6458 13.5817 25.5005 13.3656 25.0723 13.3656C19.3115 13.3656 13.5507 13.3656 7.78994 13.3656C7.71137 13.3656 7.6328 13.3711 7.55502 13.3656C7.39788 13.3546 7.36409 13.4387 7.34995 13.5793C7.29731 14.1018 7.32166 14.1348 7.83944 14.1348C10.7002 14.1348 13.5609 14.1348 16.4217 14.1348V14.1356ZM13.8171 17.1213C12.8742 17.1228 12.1333 17.8692 12.1349 18.816C12.1365 19.7573 12.8876 20.5084 13.8257 20.5068C14.756 20.5053 15.5197 19.7376 15.5166 18.8074C15.5134 17.8708 14.756 17.1189 13.8171 17.1213ZM30.2948 20.5068C31.2212 20.499 31.9865 19.7196 31.9747 18.7948C31.9629 17.859 31.2008 17.1158 30.2603 17.1213C29.3214 17.1275 28.5836 17.8818 28.5914 18.8294C28.5985 19.7691 29.3559 20.5147 30.2948 20.5068Z" fill="#0D0D0D"/>
<path d="M0 6.20569C0.235711 5.82698 0.569636 5.70834 1.01513 5.71149C3.69123 5.72877 6.36813 5.72013 9.04502 5.72013C9.17544 5.72013 9.30744 5.71463 9.4363 5.73034C9.79693 5.77434 10.046 6.06112 10.0515 6.4249C10.057 6.8044 9.80086 7.11474 9.42451 7.14774C9.16523 7.17053 8.9028 7.15796 8.64195 7.15796C6.08292 7.15796 3.52388 7.15011 0.964843 7.16582C0.504421 7.16818 0.181498 7.0291 0.00078647 6.59854V6.20569H0Z" fill="#0D0D0D"/>
<path d="M8.30763 2.8803C9.41705 2.8803 10.5257 2.87794 11.6351 2.88109C12.1882 2.88266 12.519 3.16001 12.5166 3.60314C12.5135 4.04785 12.1796 4.32206 11.6288 4.32206C9.41076 4.32363 7.19272 4.32049 4.9739 4.32521C4.62897 4.32599 4.35398 4.22071 4.20469 3.89857C4.08605 3.64321 4.11512 3.38787 4.28562 3.15844C4.45926 2.9243 4.70754 2.87715 4.98096 2.87794C6.09038 2.88108 7.19901 2.87951 8.30842 2.87951L8.30763 2.8803Z" fill="#0D0D0D"/>
</svg>
